<svg id="Слой_1" data-name="Слой 1" xmlns="http://www.w3.org/2000/svg" viewBox="0 0 25.84 22.46"><defs><style>.cls-1{fill:#77b256;}</style></defs><path class="cls-1" d="M15,26.23c-.15-.14-.3-.26-.43-.39-3.49-3.48-7-6.94-10.44-10.44A6.75,6.75,0,0,1,7.14,4a6.59,6.59,0,0,1,6.48,1.73C14.08,6.18,15,6.92,15,6.92s.9-.74,1.35-1.16a6.51,6.51,0,0,1,7-1.58,6.41,6.41,0,0,1,4.5,5.46,6.42,6.42,0,0,1-1.9,5.71C22.41,18.91,18.85,22.43,15.31,26A3.23,3.23,0,0,1,15,26.23Z" transform="translate(-2.08 -3.77)"/></svg>