<svg width="80" height="78" viewBox="0 0 80 78" fill="none" xmlns="http://www.w3.org/2000/svg">
<rect width="80" height="78" rx="16" fill="#E3ECF5"/>
<g clip-path="url(#clip0_60_940)">
<path d="M40.0966 33.7363C37.1872 33.7363 34.8286 36.0715 34.8286 38.9521C34.8286 41.8328 37.1872 44.168 40.0966 44.168C43.0061 44.168 45.3646 41.8328 45.3646 38.9521C45.3646 36.0715 43.0061 33.7363 40.0966 33.7363Z" fill="#087EA4"/>
<path d="M67.4961 38.9995C67.4961 34.9046 63.6662 31.3133 57.5683 28.9498C57.6497 28.4175 57.7235 27.891 57.7759 27.3741C58.3773 21.4903 56.9455 17.2437 53.7461 15.4144C50.1665 13.3679 45.1104 14.8533 39.9981 18.9039C34.8857 14.8533 29.8296 13.3679 26.25 15.4144C23.0507 17.2437 21.6188 21.4903 22.2203 27.3741C22.2726 27.891 22.3444 28.4194 22.4279 28.9536C21.9195 29.1458 21.4209 29.3494 20.9417 29.5627C15.4976 31.9858 12.5 35.3408 12.5 38.9995C12.5 43.0943 16.3299 46.6857 22.4279 49.0492C22.3444 49.5814 22.2726 50.1079 22.2203 50.6248C21.6188 56.5086 23.0507 60.7552 26.25 62.5846C27.35 63.2021 28.5964 63.5179 29.8607 63.4992C32.8912 63.4992 36.4301 61.9197 39.9981 59.095C43.5641 61.9197 47.1049 63.4992 50.1393 63.4992C51.4036 63.5176 52.6499 63.2019 53.75 62.5846C56.9493 60.7552 58.3812 56.5086 57.7797 50.6248C57.7274 50.1079 57.6536 49.5814 57.5721 49.0492C63.6701 46.6895 67.5 43.0924 67.5 38.9995M50.1161 17.0938C50.929 17.0744 51.7325 17.2693 52.4443 17.6587C54.6658 18.9289 55.663 22.3742 55.178 27.1108C55.145 27.4337 55.1062 27.7603 55.0596 28.0889C52.524 27.3326 49.9276 26.7933 47.2989 26.4767C45.7054 24.3789 43.9334 22.4201 42.0023 20.6218C45.0347 18.3005 47.881 17.0938 50.1141 17.0938M49.0722 44.1876C48.091 45.8744 47.0225 47.5099 45.871 49.0876C43.9191 49.2862 41.9582 49.3849 39.9961 49.3835C38.0347 49.3849 36.0744 49.2861 34.1232 49.0876C32.9748 47.5099 31.9095 45.8744 30.9316 44.1876C29.9504 42.5055 29.0587 40.7738 28.26 38.9995C29.0587 37.2251 29.9504 35.4934 30.9316 33.8113C31.908 32.1313 32.97 30.5017 34.1135 28.9286C36.0683 28.7251 38.0325 28.6238 39.9981 28.625C41.9595 28.6238 43.9197 28.7226 45.871 28.9209C47.0184 30.4964 48.0843 32.1286 49.0645 33.8113C50.0449 35.4938 50.9367 37.2255 51.7361 38.9995C50.9367 40.7734 50.0449 42.5051 49.0645 44.1876M53.0709 42.2661C53.6867 43.9291 54.1922 45.63 54.5843 47.3582C52.8829 47.8835 51.1485 48.2975 49.3924 48.5976C50.0598 47.601 50.7065 46.564 51.3325 45.4866C51.9515 44.4221 52.5316 43.3479 53.0787 42.2738M36.3137 51.8604C37.5205 51.9334 38.7525 51.9757 40 51.9757C41.2475 51.9757 42.4873 51.9334 43.696 51.8604C42.55 53.2199 41.3153 54.5037 40 55.7035C38.6875 54.5039 37.4561 53.2201 36.3137 51.8604ZM30.6057 48.5938C28.8489 48.295 27.1139 47.8823 25.4118 47.3582C25.8023 45.6328 26.3059 43.9344 26.9194 42.2738C27.4587 43.3479 28.0369 44.4221 28.6655 45.4866C29.2941 46.5512 29.9441 47.6003 30.6057 48.5976M26.9194 35.7232C26.3081 34.0688 25.8058 32.3768 25.4157 30.658C27.1136 30.1333 28.844 29.7181 30.596 29.4148C29.9324 30.4082 29.2825 31.4382 28.6558 32.5123C28.0291 33.5865 27.4568 34.6472 26.9097 35.7232M43.6844 26.1366C42.4776 26.0636 41.2456 26.0213 39.9884 26.0213C38.7415 26.0213 37.5127 26.0597 36.302 26.1366C37.4444 24.7769 38.6759 23.4931 39.9884 22.2935C41.3042 23.4928 42.5389 24.7766 43.6844 26.1366ZM51.3287 32.5123C50.7001 31.4337 50.0501 30.396 49.3788 29.3994C51.1396 29.6995 52.8785 30.1142 54.5843 30.6407C54.1929 32.3659 53.6893 34.0643 53.0768 35.7251C52.5374 34.651 51.9573 33.5768 51.3306 32.5142M24.8259 27.1128C24.3351 22.3781 25.3381 18.9308 27.5577 17.6607C28.2697 17.2719 29.073 17.0769 29.8859 17.0957C32.119 17.0957 34.9653 18.3025 37.9977 20.6237C36.0653 22.4232 34.292 24.3833 32.6972 26.4825C30.0692 26.8005 27.4731 27.3379 24.9365 28.0889C24.8919 27.7603 24.8511 27.4356 24.8201 27.1128M22.0165 31.9282C22.3153 31.8001 22.6199 31.672 22.9304 31.5438C23.5406 34.0938 24.3682 36.588 25.4041 38.9995C24.3662 41.4157 23.538 43.915 22.9284 46.4704C17.9849 44.4624 15.1192 41.68 15.1192 38.9995C15.1192 36.4592 17.6415 33.8824 22.0165 31.9282ZM27.5577 60.3383C25.3381 59.0681 24.3351 55.6209 24.8259 50.8862C24.857 50.5633 24.8977 50.2386 24.9423 49.9081C27.4779 50.6642 30.0744 51.2035 32.703 51.5203C34.297 53.6189 36.069 55.579 37.9997 57.3791C33.772 60.6131 29.9092 61.6795 27.5635 60.3383M55.176 50.8862C55.6611 55.6228 54.6638 59.0681 52.4423 60.3383C50.0986 61.6834 46.2338 60.6131 42.0081 57.3791C43.9381 55.5789 45.7094 53.6189 47.3028 51.5203C49.9315 51.2037 52.5279 50.6644 55.0635 49.9081C55.1101 50.2386 55.1489 50.5633 55.1818 50.8862M57.0793 46.4666C56.468 43.9127 55.6392 41.4147 54.6017 38.9995C55.6387 36.5829 56.4669 34.0836 57.0774 31.5285C62.0112 33.5365 64.8846 36.3189 64.8846 38.9995C64.8846 41.68 62.019 44.4624 57.0755 46.4704" fill="#087EA4"/>
</g>
<defs>
<clipPath id="clip0_60_940">
<rect width="55" height="49" fill="white" transform="translate(12.5 14.5)"/>
</clipPath>
</defs>
</svg>
