<svg width="80" height="78" viewBox="0 0 80 78" fill="none" xmlns="http://www.w3.org/2000/svg">
<rect width="80" height="78" rx="16" fill="#E3ECF5"/>
<g clip-path="url(#clip0_60_962)">
<path d="M33.3936 38.7894C32.6631 38.7894 32.0723 38.9999 31.6104 39.4315C31.1484 39.8525 30.9229 40.4104 30.9229 41.0946C30.9107 41.4236 30.9663 41.7515 31.0863 42.059C31.2062 42.3664 31.3881 42.647 31.6211 42.8841C31.8574 43.1368 32.3301 43.4736 33.0391 43.9052C33.8984 44.4315 34.4785 44.8525 34.7578 45.1683C35.0264 45.5052 35.1553 45.842 35.1553 46.2104C35.1553 46.6841 34.9941 47.0736 34.6611 47.3683C34.2864 47.6668 33.8112 47.817 33.3291 47.7894C33.0373 47.7924 32.7479 47.7374 32.4784 47.6278C32.2089 47.5182 31.9649 47.3561 31.7611 47.1515C31.5573 46.9469 31.3979 46.7039 31.2926 46.4372C31.1873 46.1705 31.1383 45.8857 31.1484 45.5999H30.8799V48.0104H31.1484C31.2344 47.7789 31.3418 47.6631 31.4922 47.6631C31.5674 47.6631 31.7393 47.7052 31.9971 47.7999C32.6416 48.021 33.168 48.1368 33.5762 48.1368C33.9159 48.1436 34.2534 48.0817 34.5677 47.9549C34.8819 47.8281 35.166 47.6392 35.4023 47.3999C35.8441 46.9848 36.1145 46.4249 36.162 45.827C36.2096 45.2291 36.0309 44.6349 35.6602 44.1578C35.3379 43.7368 34.6934 43.2525 33.7266 42.6841C33.1286 42.3737 32.5847 41.9722 32.1152 41.4946C31.8682 41.1789 31.7393 40.8525 31.7393 40.4736C31.7393 40.0736 31.9004 39.7368 32.1904 39.5052C32.4912 39.2631 32.8887 39.1368 33.3721 39.1368C33.9307 39.1368 34.3926 39.2946 34.7578 39.621C35.1123 39.9368 35.3271 40.3999 35.3916 40.9683H35.6602V38.8946H35.4131C35.3976 38.9693 35.3685 39.0407 35.3271 39.1052C35.2949 39.1368 35.252 39.1473 35.1768 39.1473C35.0188 39.132 34.8635 39.0966 34.7148 39.042C34.2908 38.8914 33.8445 38.8097 33.3936 38.7999V38.7894ZM42.2451 38.7894C41.3983 38.7813 40.5645 38.9934 39.8286 39.4039C39.0927 39.8144 38.4809 40.4087 38.0557 41.1262C37.5665 41.9472 37.3502 42.897 37.4368 43.8439C37.5234 44.7908 37.9086 45.6878 38.5391 46.4104C39.291 47.2736 40.1826 47.8104 41.2246 48.021C41.4502 48.1368 41.7939 48.4525 42.2344 48.9683C42.7393 49.5262 43.1582 49.9473 43.5127 50.1894C44.2079 50.681 45.0516 50.9293 45.9082 50.8946C46.4775 50.8946 46.9824 50.7999 47.4121 50.6104L47.3154 50.3683C46.9859 50.4919 46.6305 50.5344 46.2803 50.4922C45.9301 50.45 45.5958 50.3243 45.3066 50.1262C44.9199 49.8631 44.415 49.3789 43.8242 48.6525C43.6499 48.4227 43.4559 48.2078 43.2441 48.0104C44.3828 47.7999 45.3174 47.2525 46.0371 46.3894C46.7509 45.5673 47.1397 44.5214 47.1328 43.442C47.1451 42.8246 47.0253 42.2115 46.7811 41.6422C46.5369 41.0729 46.1737 40.5601 45.7148 40.1368C45.2568 39.6939 44.7128 39.3456 44.115 39.1123C43.5172 38.8791 42.8777 38.7657 42.2344 38.7789L42.2451 38.7894ZM47.7666 38.7894L47.7773 39.0736C48.3682 39.0736 48.7012 39.2525 48.7764 39.5999C48.8086 39.7157 48.8193 39.9473 48.8193 40.2736V46.5473C48.8193 47.021 48.7441 47.3157 48.6045 47.4525C48.4863 47.5789 48.2607 47.6631 47.9385 47.6946L47.9277 47.9683H53.8467L53.9971 46.5473H53.7285C53.6533 46.9368 53.4814 47.2104 53.1914 47.3683C52.7165 47.5638 52.2013 47.6467 51.6875 47.6104H51.1289C50.4844 47.6104 50.1084 47.3789 50.001 46.9157C49.9795 46.821 49.9795 46.7262 49.9795 46.621L50.001 40.2736C50.001 39.8104 50.0547 39.4946 50.1836 39.3368C50.3125 39.1894 50.5381 39.0946 50.8711 39.0736L50.8496 38.7894H47.7666ZM42.3311 39.1368C42.8088 39.1268 43.2822 39.2285 43.7118 39.4336C44.1415 39.6386 44.5151 39.941 44.8018 40.3157C45.4793 41.2498 45.8127 42.382 45.7471 43.5262C45.7471 44.821 45.4248 45.8525 44.791 46.6315C44.4887 47.0062 44.1009 47.3062 43.6587 47.5073C43.2165 47.7084 42.7323 47.805 42.2451 47.7894C41.2246 47.7894 40.3975 47.3894 39.7744 46.5894C39.1071 45.6857 38.7703 44.588 38.8184 43.4736C38.8184 42.1578 39.1406 41.1052 39.7852 40.3157C40.4189 39.5262 41.2676 39.1368 42.3311 39.1368ZM55.9629 40.4841C55.8232 40.4841 55.7051 40.5368 55.6299 40.6315C55.5439 40.7368 55.5225 40.842 55.5439 40.9894C55.578 41.1319 55.6615 41.2584 55.7803 41.3473C55.8984 41.4525 56.0381 41.4946 56.1777 41.4946C56.3174 41.4946 56.4248 41.442 56.5 41.3473C56.5752 41.242 56.6074 41.1262 56.5752 40.9894C56.543 40.842 56.4678 40.7262 56.3603 40.6315C56.2506 40.5366 56.1093 40.4842 55.9629 40.4841ZM59.873 41.4525C59.626 42.3789 59.0889 42.8736 58.2725 42.9578L58.2832 43.221H59.2393L59.2178 46.3578C59.2178 46.8946 59.2393 47.2525 59.2715 47.4315C59.3789 47.8736 59.6582 48.0946 60.1416 48.0946C60.8506 48.0946 61.5811 47.6736 62.3545 46.8315L62.1182 46.642C61.5596 47.1894 61.0762 47.4631 60.6465 47.4631C60.3779 47.4631 60.2168 47.3157 60.1523 47.021L60.1309 46.7683V43.221H61.6025L61.5811 42.7999H60.1416V41.4525H59.873ZM65.5019 42.6315C64.6855 42.6315 64.0303 43.021 63.5146 43.7894C63.2615 44.1634 63.089 44.5841 63.0077 45.0258C62.9264 45.4674 62.9381 45.9207 63.042 46.3578C63.1259 46.8536 63.3798 47.3066 63.7617 47.642C64.1452 47.9503 64.6302 48.1112 65.126 48.0946C65.6309 48.0946 66.3506 47.9683 66.6406 47.7052C66.9414 47.4525 67.2207 47.042 67.4785 46.4736L67.2637 46.2631C67.079 46.5855 66.8133 46.8562 66.4918 47.0497C66.1703 47.2431 65.8037 47.3528 65.4268 47.3683C64.5674 47.3683 64.0518 46.9157 63.8584 45.9999L63.8047 45.6315C64.631 45.5447 65.4217 45.2551 66.1035 44.7894C66.6191 44.3894 67.1348 43.9578 67.0381 43.5157C66.9837 43.2614 66.8343 43.0361 66.6191 42.8841C66.4043 42.7157 65.8242 42.6315 65.5019 42.6315ZM56.5859 42.6631L54.835 43.0631V43.3683L55.4473 43.2946C55.7373 43.2946 55.9092 43.421 55.9629 43.6841C55.9844 43.7683 55.9951 43.8946 56.0059 44.042L55.9844 46.8631C55.9844 47.2525 55.9307 47.4736 55.8447 47.5473C55.7588 47.6104 55.5225 47.6525 55.1357 47.6525V47.9157H57.918V47.6525C57.5205 47.6525 57.2734 47.621 57.166 47.5578C57.0586 47.5052 56.9727 47.3999 56.9404 47.242C56.9189 47.1157 56.9082 46.9157 56.8975 46.642L56.9082 42.6631H56.5859ZM65.0615 43.1894C65.2334 43.1894 65.3838 43.2525 65.5557 43.3789C65.7042 43.4793 65.811 43.6287 65.8564 43.7999C66.0068 44.5368 65.3301 45.0631 63.8154 45.3473C63.7619 44.8354 63.8628 44.3194 64.1055 43.8631C64.3525 43.4104 64.6748 43.1894 65.0615 43.1894Z" fill="#003B57"/>
<path d="M29.4619 28.0525H14.3262C13.3271 28.0525 12.5 28.863 12.5 29.842V46.1788C12.5 47.1683 13.3271 47.9894 14.3369 47.9894H24.2949C24.1875 43.1262 25.874 33.7052 29.4512 28.042L29.4619 28.0525Z" fill="#0F80CC"/>
<path d="M28.9141 28.5791H14.3262C13.6279 28.5791 13.0371 29.1475 13.0371 29.8423V45.0002C16.335 43.758 21.2871 42.6844 24.7139 42.737C25.7674 37.9267 27.1674 33.1955 28.9033 28.5791H28.9141Z" fill="url(#paint0_linear_60_962)"/>
<path d="M32.9854 27.5157C31.9541 26.6105 30.6973 26.9684 29.4619 28.0421C29.2715 28.2096 29.0887 28.3852 28.9141 28.5684C26.7979 30.7789 24.832 34.8526 24.2197 37.9578C24.4994 38.5535 24.7084 39.1787 24.8428 39.821L24.9287 40.1894L24.832 39.8947C24.8038 39.8243 24.7752 39.7542 24.7461 39.6842C24.5343 39.2508 24.3049 38.8259 24.0586 38.4105L23.6826 39.5684C24.166 40.4315 24.4668 41.9263 24.4668 41.9263L24.3164 41.4947C24.209 41.1894 23.6719 40.2631 23.543 40.0526C23.3281 40.8421 23.2422 41.3789 23.3174 41.5052C23.4678 41.7579 23.6074 42.1894 23.7471 42.6631C23.9559 43.5318 24.1208 44.4101 24.2412 45.2947C24.209 46.2 24.2305 47.1473 24.2949 48C24.3387 48.8889 24.5086 49.7675 24.7998 50.6105L24.9609 50.5263C24.5987 49.2604 24.457 47.9436 24.542 46.6315C24.6387 44.2631 25.1865 41.421 26.2178 38.4526C27.9365 33.9789 30.3428 30.3894 32.5342 28.6631C30.5361 30.4526 27.8291 36.1789 27.0127 38.3052C26.1608 40.4886 25.5136 42.7436 25.0791 45.0421C25.7451 43.0421 27.915 42.1789 27.915 42.1789C27.915 42.1789 28.9678 40.8947 30.2139 39.0631C29.4114 39.2312 28.6189 39.442 27.8399 39.6947L27.0772 40.0105C27.0772 40.0105 29.0215 38.8526 30.6973 38.3263C33.0176 34.7684 35.5098 29.7263 32.9854 27.5157Z" fill="#003B57"/>
</g>
<defs>
<linearGradient id="paint0_linear_60_962" x1="929.137" y1="61.4212" x2="929.137" y2="1578.73" gradientUnits="userSpaceOnUse">
<stop stop-color="#97D9F6"/>
<stop offset="0.92" stop-color="#0F80CC"/>
<stop offset="1" stop-color="#0F80CC"/>
</linearGradient>
<clipPath id="clip0_60_962">
<rect width="55" height="24" fill="white" transform="translate(12.5 27)"/>
</clipPath>
</defs>
</svg>
