<svg width="80" height="78" viewBox="0 0 80 78" fill="none" xmlns="http://www.w3.org/2000/svg">
<rect width="80" height="78" rx="16" fill="#E3ECF5"/>
<mask id="mask0_60_946" style="mask-type:alpha" maskUnits="userSpaceOnUse" x="12" y="11" width="56" height="56">
<path fill-rule="evenodd" clip-rule="evenodd" d="M51.5016 66.1244C51.9391 66.295 52.4071 66.3738 52.8764 66.3559C53.3458 66.3379 53.8064 66.2235 54.2296 66.0199L65.5535 60.571C66.1367 60.2902 66.6288 59.8505 66.9732 59.3024C67.3175 58.7543 67.5001 58.1201 67.5 57.4729V20.5272C67.5 19.8799 67.3172 19.2458 66.9728 18.6978C66.6284 18.1498 66.1362 17.7102 65.553 17.4296L54.2307 11.9807C53.5908 11.6728 52.871 11.5715 52.171 11.6907C51.471 11.8099 50.8253 12.1438 50.3235 12.6462L28.6452 32.422L19.2028 25.2555C18.7769 24.9321 18.2512 24.7679 17.7169 24.7917C17.1826 24.8154 16.6735 25.0254 16.2779 25.3853L13.2496 28.1403C13.0137 28.3549 12.8251 28.6165 12.6961 28.9082C12.567 29.1999 12.5002 29.5153 12.5 29.8343C12.4998 30.1533 12.5662 30.4688 12.6949 30.7607C12.8236 31.0526 13.0118 31.3144 13.2474 31.5294L21.4358 39L13.248 46.4707C13.0123 46.6856 12.8241 46.9474 12.6954 47.2393C12.5667 47.5312 12.5003 47.8467 12.5006 48.1657C12.5008 48.4847 12.5675 48.8001 12.6966 49.0918C12.8257 49.3835 13.0142 49.6451 13.2502 49.8598L16.2785 52.6152C16.674 52.9752 17.1832 53.1852 17.7174 53.2089C18.2517 53.2326 18.7774 53.0685 19.2034 52.745L28.6458 45.5775L50.3235 65.3544C50.6587 65.69 51.0595 65.9522 51.5016 66.1244ZM53.7582 26.515L37.3105 39L53.7588 51.4855L53.7582 26.515Z" fill="white"/>
</mask>
<g mask="url(#mask0_60_946)">
<path d="M65.5535 17.4378L54.2213 11.9818C53.5813 11.6737 52.8613 11.572 52.1611 11.691C51.4608 11.8099 50.8148 12.1435 50.3124 12.6457L13.2144 46.4707C12.9786 46.6856 12.7904 46.9474 12.6616 47.2393C12.5329 47.5311 12.4665 47.8467 12.4667 48.1657C12.4669 48.4847 12.5337 48.8002 12.6628 49.0919C12.7919 49.3836 12.9805 49.6451 13.2166 49.8598L16.2471 52.6147C16.643 52.9744 17.1522 53.1843 17.6866 53.208C18.221 53.2317 18.7468 53.0677 19.1731 52.7445L63.8484 18.8535C65.3472 17.7167 67.4999 18.7853 67.4999 20.6669V20.5349C67.4998 19.8878 67.317 19.254 66.9727 18.7062C66.6284 18.1585 66.1364 17.719 65.5535 17.4384V17.4378Z" fill="#0065A9"/>
<g filter="url(#filter0_d_60_946)">
<path d="M65.5535 60.5625L54.2213 66.0185C53.5813 66.3267 52.8613 66.4284 52.161 66.3094C51.4607 66.1905 50.8147 65.8568 50.3124 65.3546L13.2144 31.5296C12.9786 31.3147 12.7904 31.0529 12.6616 30.761C12.5329 30.4691 12.4665 30.1536 12.4667 29.8346C12.4669 29.5156 12.5337 29.2001 12.6628 28.9084C12.7919 28.6167 12.9805 28.3552 13.2166 28.1405L16.2471 25.3856C16.643 25.0259 17.1522 24.816 17.6866 24.7923C18.221 24.7686 18.7468 24.9325 19.1731 25.2558L63.8484 59.1468C65.3472 60.2836 67.4999 59.215 67.4999 57.3334V57.4654C67.4998 58.1124 67.317 58.7463 66.9727 59.294C66.6284 59.8418 66.1364 60.2818 65.5535 60.5625Z" fill="#007ACC"/>
</g>
<g filter="url(#filter1_d_60_946)">
<path d="M54.2219 66.0194C53.5817 66.3273 52.8615 66.4286 52.1612 66.3094C51.4608 66.1902 50.8148 65.8563 50.3125 65.3539C51.5808 66.6227 53.75 65.7246 53.75 63.9305V14.0697C53.75 12.2756 51.5808 11.3774 50.3125 12.6457C50.8148 12.1433 51.4608 11.8094 52.1612 11.6902C52.8615 11.571 53.5817 11.6723 54.2219 11.9802L65.5519 17.4296C66.1353 17.7101 66.6277 18.1497 66.9724 18.6977C67.317 19.2457 67.4999 19.8799 67.5 20.5272V57.4729C67.5001 58.1203 67.3173 58.7546 66.9728 59.3027C66.6282 59.8508 66.1359 60.2905 65.5525 60.5711L54.2219 66.0194Z" fill="#1F9CF0"/>
</g>
<path style="mix-blend-mode:overlay" opacity="0.25" fill-rule="evenodd" clip-rule="evenodd" d="M51.468 66.1244C51.9055 66.295 52.3735 66.3738 52.8429 66.3558C53.3122 66.3378 53.7728 66.2235 54.196 66.0199L65.5199 60.571C66.1033 60.2903 66.5955 59.8506 66.9399 59.3025C67.2844 58.7544 67.4671 58.1202 67.4669 57.4729V20.5272C67.467 19.8799 67.2842 19.2458 66.9398 18.6978C66.5953 18.1498 66.1032 17.7102 65.5199 17.4296L54.1965 11.9807C53.5567 11.6728 52.8369 11.5715 52.1369 11.6907C51.4369 11.8099 50.7912 12.1438 50.2893 12.6462L28.6116 32.422L19.1692 25.2555C18.7434 24.9322 18.2178 24.7682 17.6836 24.7919C17.1494 24.8156 16.6404 25.0255 16.2449 25.3853L13.216 28.1403C12.9801 28.3549 12.7916 28.6165 12.6625 28.9082C12.5334 29.1999 12.4666 29.5153 12.4664 29.8343C12.4662 30.1533 12.5326 30.4688 12.6613 30.7607C12.79 31.0526 12.9782 31.3144 13.2138 31.5294L21.4022 39L13.2138 46.4707C12.9782 46.6856 12.79 46.9474 12.6613 47.2393C12.5326 47.5312 12.4662 47.8467 12.4664 48.1657C12.4666 48.4847 12.5334 48.8001 12.6625 49.0918C12.7916 49.3835 12.9801 49.6451 13.216 49.8598L16.2449 52.6147C16.6404 52.9745 17.1494 53.1844 17.6836 53.2081C18.2178 53.2318 18.7434 53.0678 19.1692 52.7445L28.6116 45.578L50.2893 65.3549C50.6246 65.6905 51.026 65.9522 51.468 66.1244ZM53.7246 26.515L37.2763 39L53.7246 51.4855V26.515Z" fill="url(#paint0_linear_60_946)"/>
</g>
<defs>
<filter id="filter0_d_60_946" x="4.13268" y="16.456" width="71.7012" height="58.2359" filterUnits="userSpaceOnUse" color-interpolation-filters="sRGB">
<feFlood flood-opacity="0" result="BackgroundImageFix"/>
<feColorMatrix in="SourceAlpha" type="matrix" values="0 0 0 0 0 0 0 0 0 0 0 0 0 0 0 0 0 0 127 0" result="hardAlpha"/>
<feOffset/>
<feGaussianBlur stdDeviation="4.167"/>
<feColorMatrix type="matrix" values="0 0 0 0 0 0 0 0 0 0 0 0 0 0 0 0 0 0 0.25 0"/>
<feBlend mode="overlay" in2="BackgroundImageFix" result="effect1_dropShadow_60_946"/>
<feBlend mode="normal" in="SourceGraphic" in2="effect1_dropShadow_60_946" result="shape"/>
</filter>
<filter id="filter1_d_60_946" x="41.9785" y="3.3076" width="33.8555" height="71.3843" filterUnits="userSpaceOnUse" color-interpolation-filters="sRGB">
<feFlood flood-opacity="0" result="BackgroundImageFix"/>
<feColorMatrix in="SourceAlpha" type="matrix" values="0 0 0 0 0 0 0 0 0 0 0 0 0 0 0 0 0 0 127 0" result="hardAlpha"/>
<feOffset/>
<feGaussianBlur stdDeviation="4.167"/>
<feColorMatrix type="matrix" values="0 0 0 0 0 0 0 0 0 0 0 0 0 0 0 0 0 0 0.25 0"/>
<feBlend mode="overlay" in2="BackgroundImageFix" result="effect1_dropShadow_60_946"/>
<feBlend mode="normal" in="SourceGraphic" in2="effect1_dropShadow_60_946" result="shape"/>
</filter>
<linearGradient id="paint0_linear_60_946" x1="39.9664" y1="11.6419" x2="39.9664" y2="66.3581" gradientUnits="userSpaceOnUse">
<stop stop-color="white"/>
<stop offset="1" stop-color="white" stop-opacity="0"/>
</linearGradient>
</defs>
</svg>
