<svg width="80" height="78" viewBox="0 0 80 78" fill="none" xmlns="http://www.w3.org/2000/svg">
<path d="M65.8334 0H14.1666C6.34263 0 0 6.34263 0 14.1666V63.8333C0 71.6573 6.34263 78 14.1666 78H65.8334C73.6573 78 80 71.6573 80 63.8333V14.1666C80 6.34263 73.6573 0 65.8334 0Z" fill="#330000"/>
<path d="M38.7667 46.8093H26.3698L23.8474 54.6447C23.8131 54.7875 23.73 54.914 23.6124 55.0021C23.4948 55.0903 23.3502 55.1347 23.2035 55.1277H16.9245C16.5663 55.1277 16.4412 54.9309 16.5488 54.5373L27.282 23.6253C27.3894 23.3034 27.4968 22.9367 27.6041 22.5251C27.7445 21.8091 27.8164 21.0814 27.8188 20.3517C27.8115 20.3007 27.8162 20.2486 27.8325 20.1998C27.8488 20.1508 27.8762 20.1065 27.9127 20.07C27.9492 20.0335 27.9936 20.006 28.0425 19.9898C28.0914 19.9734 28.1434 19.9687 28.1945 19.976H36.7273C36.9774 19.976 37.1204 20.0654 37.1567 20.2443L49.3391 54.5909C49.4465 54.9491 49.339 55.128 49.0171 55.1277H42.0404C41.9205 55.1409 41.7999 55.1101 41.7012 55.041C41.6025 54.9719 41.5322 54.8691 41.5037 54.752L38.7667 46.8093ZM28.3017 40.0474H36.781C36.5664 39.3321 36.3159 38.527 36.0298 37.6323C35.7429 36.7384 35.4389 35.7813 35.1175 34.7611C34.7954 33.7415 34.4733 32.7219 34.1513 31.7021C33.8294 30.6825 33.5343 29.6986 33.2659 28.7504C32.9975 27.8029 32.756 26.9354 32.5415 26.1477H32.4878C32.1856 27.5971 31.8095 29.0301 31.3608 30.441C30.8594 32.051 30.3494 33.6968 29.8312 35.3783C29.3121 37.0604 28.8023 38.6168 28.3017 40.0474Z" fill="#FF9A00"/>
<path d="M56.5835 25.6648C56.0361 25.6869 55.4903 25.5931 54.9816 25.3896C54.473 25.1861 54.0131 24.8776 53.6318 24.4842C53.2517 24.0737 52.9564 23.5922 52.7629 23.0672C52.5695 22.5422 52.4817 21.9842 52.5048 21.4252C52.4853 20.8717 52.5827 20.3204 52.7907 19.8071C52.9988 19.2939 53.3128 18.8303 53.7122 18.4467C54.1077 18.067 54.5747 17.7696 55.086 17.5715C55.5972 17.3734 56.1427 17.2787 56.6907 17.2929C57.9788 17.2929 58.9896 17.6774 59.723 18.4467C60.0932 18.8464 60.3809 19.3152 60.5697 19.8263C60.7584 20.3374 60.8445 20.8808 60.8231 21.4252C60.8455 21.9863 60.7549 22.5464 60.5567 23.0718C60.3585 23.5973 60.0567 24.0776 59.6692 24.4842C59.2643 24.8834 58.781 25.1944 58.2499 25.3976C57.7189 25.6008 57.1515 25.6917 56.5835 25.6648ZM52.8803 54.5911V28.9385C52.8803 28.6165 53.023 28.4555 53.3097 28.4555H59.9107C60.1968 28.4555 60.3398 28.6164 60.3401 28.9385V54.5911C60.3401 54.9492 60.197 55.128 59.9107 55.1278H53.3634C53.0415 55.1278 52.8805 54.9489 52.8803 54.5911Z" fill="#FF9A00"/>
</svg>
