<svg width="80" height="78" viewBox="0 0 80 78" fill="none" xmlns="http://www.w3.org/2000/svg">
<rect width="80" height="78" rx="16" fill="#E3ECF5"/>
<path d="M57.0622 49.4643C55.9212 50.6055 54.5636 51.5074 53.0691 52.1171C51.5746 52.7269 49.9733 53.0321 48.3591 53.015C44.9858 53.015 41.8824 51.7341 39.656 49.4868C38.5766 48.3857 37.767 47.1272 37.2722 45.7563C36.7927 44.4479 36.6026 43.0511 36.7152 41.6622C36.8278 40.2733 37.2403 38.9253 37.9244 37.7111C38.5766 36.5425 39.4761 35.4638 40.5781 34.5649C42.737 32.812 45.4806 31.8682 48.3591 31.8682C51.2376 31.8682 53.9812 32.7895 56.1401 34.5424C57.2421 35.4413 58.1416 36.4976 58.7713 37.6886C59.8124 39.5702 60.2069 41.7413 59.8941 43.8685C59.5812 45.9957 58.5785 47.9616 57.0397 49.4643H57.0622Z" fill="#E3ECF5"/>
<path d="M41.163 41.7563C41.2754 39.936 42.175 38.318 43.5243 37.1719C44.8511 36.0482 46.6502 35.3516 48.6067 35.3516C50.5407 35.3516 52.3398 36.0482 53.6666 37.1719C55.0159 38.318 55.9155 39.936 56.0279 41.7563C56.1179 43.644 55.3758 45.3969 54.0489 46.7003C52.6771 48.0037 50.7656 48.8352 48.6067 48.8352C46.4478 48.8352 44.5138 48.0037 43.142 46.7003C41.8152 45.3969 41.073 43.644 41.163 41.7563Z" fill="#005385"/>
<path d="M29.3564 45.4644C29.3564 46.1835 29.5813 47.5768 29.9411 48.678C30.6608 50.9702 31.8751 53.1051 33.5843 54.9929C35.3384 56.903 37.4748 58.4537 39.971 59.5548C42.6114 60.7316 45.4706 61.3379 48.3616 61.334C51.2527 61.3301 54.1103 60.7162 56.7475 59.5324C59.1673 58.4572 61.3352 56.8879 63.1117 54.9254C65.5857 52.1998 67.1086 48.7461 67.452 45.0824C67.72 41.6087 66.8604 38.1413 65.0008 35.1943C63.8797 33.3982 62.4482 31.8155 60.7729 30.52L43.5917 17.3509L43.5467 17.306C42.4223 16.452 40.5107 16.452 39.2739 17.306C38.037 18.1824 37.8796 19.6432 39.004 20.5646L46.1554 26.385L24.319 26.4075H24.2965C22.4749 26.4075 20.7433 27.5985 20.406 29.0817C20.0462 30.6099 21.283 31.8684 23.1496 31.8908L34.214 31.8684L14.469 47.015L14.4015 47.0824C12.535 48.4982 11.9278 50.8803 13.0972 52.3635C14.2891 53.8917 16.8303 53.8917 18.7193 52.386L29.4914 43.5542C29.4914 43.5542 29.3339 44.7453 29.3339 45.4644H29.3564ZM57.0623 49.4645C55.9213 50.6057 54.5638 51.5076 53.0693 52.1173C51.5747 52.7271 49.9734 53.0323 48.3592 53.0152C44.986 53.0152 41.8825 51.7343 39.6562 49.487C38.5767 48.3859 37.7671 47.1274 37.2724 45.7565C36.7928 44.4481 36.6028 43.0513 36.7154 41.6624C36.828 40.2735 37.2405 38.9255 37.9246 37.7113C38.5767 36.5427 39.4763 35.464 40.5782 34.5651C42.7371 32.8122 45.4807 31.8684 48.3592 31.8684C51.2378 31.8684 53.9814 32.7897 56.1403 34.5426C57.2422 35.4415 58.1418 36.4978 58.7714 37.6888C59.8126 39.5704 60.207 41.7415 59.8942 43.8687C59.5814 45.9959 58.5786 47.9618 57.0398 49.4645H57.0623Z" fill="#FF7021"/>
</svg>
