<svg width="80" height="78" viewBox="0 0 80 78" fill="none" xmlns="http://www.w3.org/2000/svg">
<rect width="80" height="78" rx="16" fill="#E3ECF5"/>
<mask id="mask0_60_845" style="mask-type:luminance" maskUnits="userSpaceOnUse" x="21" y="11" width="38" height="56">
<path d="M58.3333 11.5H21.6667V66.5H58.3333V11.5Z" fill="white"/>
</mask>
<g mask="url(#mask0_60_845)">
<path d="M30.8333 66.5003C35.8933 66.5003 40 62.3936 40 57.3336V48.167H30.8333C25.7734 48.167 21.6667 52.2736 21.6667 57.3336C21.6667 62.3936 25.7734 66.5003 30.8333 66.5003Z" fill="#0ACF83"/>
<path d="M21.6667 38.9997C21.6667 33.9397 25.7734 29.833 30.8333 29.833H40V48.1664H30.8333C25.7734 48.1664 21.6667 44.0597 21.6667 38.9997Z" fill="#A259FF"/>
<path d="M21.6667 20.6666C21.6667 15.6067 25.7734 11.5 30.8333 11.5H40V29.8334H30.8333C25.7734 29.8334 21.6667 25.7266 21.6667 20.6666Z" fill="#F24E1E"/>
<path d="M40 11.5H49.1667C54.2267 11.5 58.3334 15.6067 58.3334 20.6666C58.3334 25.7266 54.2267 29.8334 49.1667 29.8334H40V11.5Z" fill="#FF7262"/>
<path d="M58.3334 38.9997C58.3334 44.0597 54.2267 48.1664 49.1667 48.1664C44.1067 48.1664 40 44.0597 40 38.9997C40 33.9397 44.1067 29.833 49.1667 29.833C54.2267 29.833 58.3334 33.9397 58.3334 38.9997Z" fill="#1ABCFE"/>
</g>
</svg>
