<svg width="80" height="78" viewBox="0 0 80 78" fill="none" xmlns="http://www.w3.org/2000/svg">
<rect width="80" height="78" rx="16" fill="#E3ECF5"/>
<path d="M66.4622 36.5513L42.4491 12.5361C41.7848 11.8723 40.8842 11.4995 39.9451 11.4995C39.0061 11.4995 38.1054 11.8723 37.4411 12.5361L32.4546 17.5204L38.7796 23.8476C39.5255 23.5931 40.328 23.5534 41.0954 23.733C41.8629 23.9126 42.5643 24.3043 43.1199 24.8634C43.6754 25.4225 44.0626 26.1265 44.2372 26.895C44.4119 27.6636 44.367 28.4658 44.1077 29.2101L50.2029 35.3073C51.1139 34.9941 52.1048 35.0026 53.0103 35.3314C53.9159 35.6602 54.6814 36.2894 55.1793 37.1141C55.6773 37.9389 55.8775 38.9093 55.7466 39.8638C55.6158 40.8183 55.1617 41.6991 54.4602 42.3594C53.7587 43.0197 52.8521 43.4196 51.8915 43.4926C50.9308 43.5655 49.9742 43.307 49.1811 42.7601C48.388 42.2133 47.8062 41.4111 47.5327 40.4873C47.2593 39.5636 47.3107 38.574 47.6784 37.6835L41.9937 31.9966V46.9583C42.8577 47.3856 43.5493 48.0961 43.953 48.9714C44.3567 49.8467 44.4482 50.834 44.2123 51.7686C43.9764 52.7032 43.4272 53.5287 42.6564 54.1075C41.8856 54.6863 40.9397 54.9835 39.9764 54.9495C39.0131 54.9154 38.0905 54.5522 37.3625 53.9204C36.6345 53.2887 36.145 52.4264 35.9756 51.4775C35.8062 50.5286 35.9672 49.5502 36.4317 48.7056C36.8962 47.861 37.6362 47.2011 38.5282 46.8359V31.7388C38.0136 31.5279 37.5457 31.2173 37.1517 30.8247C36.7577 30.4321 36.4453 29.9654 36.2326 29.4515C36.0199 28.9376 35.9111 28.3866 35.9124 27.8304C35.9136 27.2742 36.0251 26.7238 36.2402 26.2109L30.0011 19.9739L13.5376 36.4396C12.8732 37.104 12.5 38.0051 12.5 38.9446C12.5 39.8842 12.8732 40.7853 13.5376 41.4497L37.5507 65.4628C38.2151 66.1272 39.1162 66.5004 40.0558 66.5004C40.9954 66.5004 41.8965 66.1272 42.5609 65.4628L66.4622 41.5614C67.1267 40.8967 67.5 39.9952 67.5 39.0553C67.5 38.1154 67.1267 37.2139 66.4622 36.5491" fill="#DE4C36"/>
</svg>
