<?xml version="1.0" encoding="utf-8"?>
<!-- Generator: Adobe Illustrator 25.2.3, SVG Export Plug-In . SVG Version: 6.00 Build 0)  -->
<svg version="1.1" id="Слой_1" xmlns="http://www.w3.org/2000/svg" xmlns:xlink="http://www.w3.org/1999/xlink" x="0px" y="0px"
	 viewBox="0 0 25.8 22.5" style="enable-background:new 0 0 25.8 22.5;" xml:space="preserve">
<style type="text/css">
	.st0{fill:#0762A0;}
</style>
<path class="st0" d="M12.9,22.5c-0.1-0.1-0.3-0.3-0.4-0.4c-3.5-3.5-7-6.9-10.4-10.4C-0.6,9-0.7,4.8,1.9,2.1c0.9-0.9,2-1.5,3.2-1.9
	c2.3-0.6,4.8,0,6.5,1.7c0.5,0.4,1.4,1.2,1.4,1.2s0.9-0.7,1.4-1.2c1.8-1.9,4.6-2.5,7-1.6c2.5,0.8,4.2,2.9,4.5,5.5
	c0.4,2.1-0.4,4.2-1.9,5.7c-3.5,3.6-7.1,7.1-10.6,10.6C13.1,22.3,13,22.4,12.9,22.5z"/>
</svg>
