<svg width="80" height="78" viewBox="0 0 80 78" fill="none" xmlns="http://www.w3.org/2000/svg">
<path d="M0 16C0 7.16344 7.16344 0 16 0H64C72.8366 0 80 7.16344 80 16V62C80 70.8366 72.8366 78 64 78H16C7.16344 78 0 70.8366 0 62V16Z" fill="#F0DB4F"/>
<path d="M73.4525 59.3969C72.8669 55.838 70.4867 52.85 63.4373 50.0621C60.9886 48.9648 58.2586 48.1789 57.4449 46.3697C57.1559 45.3169 57.1179 44.7237 57.3004 44.0861C57.8251 42.0175 60.3574 41.3724 62.365 41.9656C63.6578 42.3882 64.8821 43.3596 65.6198 44.9091C69.0722 42.7293 69.0646 42.7441 71.4753 41.2464C70.5932 39.9118 70.1217 39.2964 69.5437 38.7255C67.4677 36.4641 64.6388 35.3 60.1141 35.389C59.3308 35.4854 58.54 35.5891 57.7566 35.6856C55.4982 36.2417 53.346 37.3983 52.0836 38.948C48.2966 43.1371 49.3764 50.4699 53.9848 53.4877C58.5247 56.8094 65.1939 57.5656 66.0456 60.6723C66.8745 64.4759 63.1788 65.7066 59.5057 65.2693C56.7985 64.7206 55.2928 63.3786 53.6654 60.9392C50.6693 62.6297 50.6693 62.6297 47.5894 64.3573C48.3195 65.9143 49.0874 66.6187 50.3119 67.9681C56.1065 73.6995 70.6084 73.4177 73.2092 64.7428C73.3156 64.4462 74.0153 62.4591 73.4525 59.3969ZM43.4905 35.8486H36.0076C36.0076 42.1509 35.9773 48.4087 35.9773 54.711C35.9773 58.7222 36.1902 62.3998 35.521 63.5268C34.4259 65.7436 31.5894 65.4694 30.2966 65.0393C28.9811 64.409 28.3119 63.5119 27.5362 62.2441C27.3233 61.8808 27.1636 61.599 27.1103 61.5768C25.0799 62.7853 23.057 64.0012 21.0266 65.2099C22.0381 67.234 23.5285 68.9912 25.4373 70.133C28.289 71.8012 32.1217 72.3128 36.1293 71.4157C38.7377 70.6742 40.9886 69.1395 42.1673 66.804C43.8707 63.7418 43.5057 60.0346 43.4905 55.9344C43.5285 49.2466 43.4905 42.5587 43.4905 35.8486Z" fill="#323330"/>
</svg>
