<svg width="80" height="78" viewBox="0 0 80 78" fill="none" xmlns="http://www.w3.org/2000/svg">
<rect width="80" height="78" rx="16" fill="#E3ECF5"/>
<mask id="mask0_60_878" style="mask-type:alpha" maskUnits="userSpaceOnUse" x="17" y="16" width="46" height="46">
<path fill-rule="evenodd" clip-rule="evenodd" d="M31.0023 16.5C38.4592 16.5 44.5042 22.4606 44.5042 29.8136V34.8731H48.9978C56.4548 34.8731 62.5001 40.8341 62.5001 48.1867C62.5001 55.5394 56.4548 61.4999 48.9978 61.4999H17.5V29.8136C17.5 22.4606 23.5449 16.5 31.0023 16.5Z" fill="url(#paint0_linear_60_878)"/>
</mask>
<g mask="url(#mask0_60_878)">
<g filter="url(#filter0_f_60_878)">
<path d="M37.2421 70.4763C54.0656 70.4763 67.7038 57.0643 67.7038 40.5197C67.7038 23.975 54.0656 10.563 37.2421 10.563C20.4186 10.563 6.78046 23.975 6.78046 40.5197C6.78046 57.0643 20.4186 70.4763 37.2421 70.4763Z" fill="#4B73FF"/>
</g>
<g filter="url(#filter1_f_60_878)">
<path d="M40.5871 54.0379C62.1333 54.0379 79.5999 40.6258 79.5999 24.0812C79.5999 7.53657 62.1333 -5.87549 40.5871 -5.87549C19.0409 -5.87549 1.57422 7.53657 1.57422 24.0812C1.57422 40.6258 19.0409 54.0379 40.5871 54.0379Z" fill="#FF66F4"/>
</g>
<g filter="url(#filter2_f_60_878)">
<path d="M46.9483 44.752C63.7718 44.752 77.41 32.9734 77.41 18.4436C77.41 3.91392 63.7718 -7.86475 46.9483 -7.86475C30.1248 -7.86475 16.4867 3.91392 16.4867 18.4436C16.4867 32.9734 30.1248 44.752 46.9483 44.752Z" fill="#FF0105"/>
</g>
<g filter="url(#filter3_f_60_878)">
<path d="M41.1291 42.0896C51.2466 42.0896 59.4485 34.0236 59.4485 24.0736C59.4485 14.1237 51.2466 6.05762 41.1291 6.05762C31.0116 6.05762 22.8097 14.1237 22.8097 24.0736C22.8097 34.0236 31.0116 42.0896 41.1291 42.0896Z" fill="#FE7B02"/>
</g>
</g>
<defs>
<filter id="filter0_f_60_878" x="-29.6075" y="-25.825" width="133.699" height="132.69" filterUnits="userSpaceOnUse" color-interpolation-filters="sRGB">
<feFlood flood-opacity="0" result="BackgroundImageFix"/>
<feBlend mode="normal" in="SourceGraphic" in2="BackgroundImageFix" result="shape"/>
<feGaussianBlur stdDeviation="18.194" result="effect1_foregroundBlur_60_878"/>
</filter>
<filter id="filter1_f_60_878" x="-34.8138" y="-42.2635" width="150.802" height="132.69" filterUnits="userSpaceOnUse" color-interpolation-filters="sRGB">
<feFlood flood-opacity="0" result="BackgroundImageFix"/>
<feBlend mode="normal" in="SourceGraphic" in2="BackgroundImageFix" result="shape"/>
<feGaussianBlur stdDeviation="18.194" result="effect1_foregroundBlur_60_878"/>
</filter>
<filter id="filter2_f_60_878" x="-19.9013" y="-44.2527" width="133.699" height="125.393" filterUnits="userSpaceOnUse" color-interpolation-filters="sRGB">
<feFlood flood-opacity="0" result="BackgroundImageFix"/>
<feBlend mode="normal" in="SourceGraphic" in2="BackgroundImageFix" result="shape"/>
<feGaussianBlur stdDeviation="18.194" result="effect1_foregroundBlur_60_878"/>
</filter>
<filter id="filter3_f_60_878" x="-13.5783" y="-30.3304" width="109.415" height="108.808" filterUnits="userSpaceOnUse" color-interpolation-filters="sRGB">
<feFlood flood-opacity="0" result="BackgroundImageFix"/>
<feBlend mode="normal" in="SourceGraphic" in2="BackgroundImageFix" result="shape"/>
<feGaussianBlur stdDeviation="18.194" result="effect1_foregroundBlur_60_878"/>
</filter>
<linearGradient id="paint0_linear_60_878" x1="32.6434" y1="24.4079" x2="45.9537" y2="61.6262" gradientUnits="userSpaceOnUse">
<stop offset="0.025" stop-color="#FF8E63"/>
<stop offset="0.56" stop-color="#FF7EB0"/>
<stop offset="0.95" stop-color="#4B73FF"/>
</linearGradient>
</defs>
</svg>
