<svg width="80" height="78" viewBox="0 0 80 78" fill="none" xmlns="http://www.w3.org/2000/svg">
<rect width="80" height="78" rx="16" fill="#E3ECF5"/>
<path d="M67.5 30.1309H59.5233V60.4757H67.5V30.1309Z" fill="black"/>
<path d="M25.1065 25.5011C27.6724 25.5011 29.7363 27.565 29.7363 30.1309H37.7129C37.6572 23.1583 32.0233 17.5244 25.1065 17.5244C18.1896 17.5244 12.5 23.1583 12.5 30.1309H20.4767C20.4767 27.565 22.5406 25.5011 25.1065 25.5011Z" fill="#FF4B4B"/>
<path d="M29.7362 60.4757H37.6571V52.499V30.1309H29.7362V60.4757Z" fill="#5887FF"/>
<path d="M50.2078 60.4757V52.499H42.2869H37.6571V60.4757H50.2078Z" fill="#FFAA00"/>
<path d="M50.2079 30.1309C50.2079 27.565 52.2718 25.5011 54.8377 25.5011V17.5244C47.9209 17.5244 42.287 23.1583 42.287 30.1309V52.5549H50.2636V30.1309H50.2079Z" fill="#00843F"/>
<path d="M59.5232 30.1309H67.4999C67.4441 23.1583 61.8103 17.5244 54.8934 17.5244V25.5011C57.4594 25.5011 59.5232 27.565 59.5232 30.1309Z" fill="#FC83FF"/>
<path d="M20.4767 30.1309H12.5V60.4757H20.4767V30.1309Z" fill="black"/>
</svg>
