<svg width="80" height="78" viewBox="0 0 80 78" fill="none" xmlns="http://www.w3.org/2000/svg">
<rect width="80" height="78" rx="16" fill="#E3ECF5"/>
<path d="M14.6458 11.3098L48.1766 8.83307C52.2953 8.47957 53.3536 8.71796 55.9432 10.6008L66.6467 18.1426C68.4123 19.4394 69 19.7931 69 21.2053V62.5663C69 65.1584 68.0586 66.6916 64.7642 66.9262L25.8262 69.2837C23.3538 69.4009 22.1763 69.0474 20.8815 67.3968L12.9996 57.146C11.5859 55.2591 11 53.8467 11 52.1961V15.4313C11 13.3121 11.9414 11.5444 14.6458 11.3098Z" fill="white"/>
<path d="M48.1766 8.83307L14.6458 11.3098C11.9414 11.5444 11 13.3121 11 15.4313V52.1963C11 53.8469 11.5857 55.2591 12.9996 57.146L20.8815 67.3968C22.1763 69.0474 23.3538 69.4009 25.8262 69.2837L64.7642 66.9262C68.0566 66.6916 69 65.1584 69 62.5663V21.2053C69 19.8659 68.4707 19.48 66.9133 18.3365L66.6448 18.1426L55.9432 10.6008C53.3536 8.71796 52.2955 8.47957 48.1766 8.83307ZM26.7069 20.5285C23.5275 20.7426 22.8064 20.7911 21.0007 19.3223L16.4094 15.6697C15.9427 15.197 16.1769 14.6069 17.3526 14.4897L49.5865 12.1342C52.2933 11.8979 53.7032 12.8412 54.7617 13.6656L60.29 17.6719C60.5263 17.7909 61.1142 18.4961 60.4071 18.4961L27.119 20.5001L26.7069 20.5285ZM23.0003 62.2128V27.1004C23.0003 25.567 23.4709 24.86 24.8808 24.7408L63.1139 22.5022C64.4107 22.385 64.9966 23.2092 64.9966 24.7408V59.6187C64.9966 61.1521 64.7601 62.449 62.6433 62.5663L26.0564 64.6876C23.9397 64.8047 23.0003 64.0998 23.0003 62.2128ZM59.1166 28.983C59.3509 30.0437 59.1166 31.1044 58.0561 31.2257L56.2928 31.5751V57.4993C54.7617 58.3234 53.3518 58.7943 52.1739 58.7943C50.2916 58.7943 49.8208 58.2042 48.4109 56.4386L36.8793 38.2925V55.8487L40.527 56.6749C40.527 56.6749 40.527 58.7964 37.5841 58.7964L29.47 59.267C29.2337 58.7943 29.47 57.6164 30.2925 57.3821L32.411 56.7941V33.5814L29.4703 33.343C29.2337 32.2825 29.8214 30.7509 31.4699 30.6317L40.1758 30.046L52.1741 48.4264V32.1654L49.1159 31.8137C48.8796 30.5146 49.8208 29.5712 50.9964 29.4561L59.1164 28.9832L59.1166 28.983Z" fill="black"/>
</svg>
