<svg width="80" height="78" viewBox="0 0 80 78" fill="none" xmlns="http://www.w3.org/2000/svg">
<g clip-path="url(#clip0_60_865)">
<mask id="mask0_60_865" style="mask-type:luminance" maskUnits="userSpaceOnUse" x="0" y="0" width="80" height="79">
<path d="M80 0H0V78.9018H80V0Z" fill="white"/>
</mask>
<g mask="url(#mask0_60_865)">
<path d="M65.8334 0H14.1666C6.34263 0 0 6.41596 0 14.3304V64.5714C0 72.4858 6.34263 78.9018 14.1666 78.9018H65.8334C73.6573 78.9018 80 72.4858 80 64.5714V14.3304C80 6.41596 73.6573 0 65.8334 0Z" fill="#001E36"/>
<path d="M18.014 55.3306V20.6411C18.014 20.3883 18.1214 20.2611 18.3361 20.2611C18.9079 20.2611 19.4299 20.2526 20.2174 20.234C21.0041 20.2161 21.8538 20.1981 22.7666 20.1797C23.679 20.1618 24.645 20.1437 25.6647 20.1254C26.6842 20.1075 27.6949 20.0985 28.6967 20.0981C31.4153 20.0981 33.7051 20.442 35.566 21.1297C37.2447 21.7041 38.7756 22.6498 40.0473 23.8983C41.1253 24.9804 41.9584 26.2862 42.4891 27.7256C42.9911 29.1264 43.2455 30.6056 43.2405 32.0957C43.2405 34.9916 42.5786 37.3802 41.2548 39.2615C39.9223 41.1507 38.0492 42.5812 35.8881 43.3603C33.6341 44.211 31.1293 44.4995 28.3748 44.4995C27.5874 44.4995 27.0328 44.4906 26.711 44.4724C26.3891 44.4546 25.9062 44.4455 25.2622 44.4453V55.2763C25.2715 55.3427 25.2655 55.4104 25.2445 55.474C25.2236 55.5376 25.1883 55.5954 25.1414 55.6427C25.0945 55.6902 25.0374 55.7259 24.9745 55.7471C24.9116 55.7683 24.8447 55.7744 24.7791 55.7649H18.3897C18.139 55.7649 18.014 55.6206 18.014 55.3306ZM25.2622 26.7755V38.0898C25.7267 38.1263 26.156 38.1444 26.5501 38.1441H28.3211C29.6241 38.1397 30.9186 37.9307 32.1584 37.5244C33.2215 37.205 34.1715 36.5831 34.8953 35.7329C35.5929 34.9008 35.9417 33.7427 35.9418 32.2586C35.9701 31.2084 35.7 30.1721 35.1635 29.2728C34.5996 28.403 33.7845 27.7301 32.8291 27.3456C31.5816 26.8551 30.2491 26.6243 28.9114 26.667C28.0526 26.667 27.2924 26.676 26.6307 26.694C25.9682 26.7128 25.5121 26.7399 25.2622 26.7755Z" fill="#31A8FF"/>
<path d="M63.9904 36.0327C62.9819 35.5085 61.9077 35.1251 60.7973 34.8927C59.5737 34.6087 58.3227 34.4631 57.0674 34.4583C56.3884 34.4398 55.7103 34.522 55.0549 34.7027C54.6377 34.7966 54.2669 35.0371 54.0084 35.3813C53.8335 35.6566 53.7403 35.9769 53.7401 36.3041C53.7499 36.6216 53.8631 36.927 54.0621 37.1727C54.3756 37.5437 54.7586 37.8481 55.189 38.0685C55.9542 38.4853 56.7427 38.8569 57.5504 39.1814C59.3515 39.7913 61.0725 40.6207 62.6755 41.6514C63.7675 42.3486 64.6712 43.3093 65.3052 44.4472C65.8384 45.5247 66.1054 46.7169 66.0835 47.9216C66.1155 49.5124 65.6662 51.0752 64.7955 52.4003C63.8633 53.7455 62.5686 54.7913 61.0655 55.4132C59.4371 56.1368 57.4246 56.4988 55.0281 56.499C53.5057 56.5146 51.9857 56.369 50.4932 56.0647C49.3174 55.8465 48.1726 55.4819 47.0854 54.9789C46.968 54.9177 46.8704 54.8239 46.8039 54.7085C46.7373 54.5931 46.7046 54.4609 46.7097 54.3275V48.4645C46.7033 48.4071 46.7123 48.349 46.7359 48.2963C46.7596 48.2438 46.797 48.1987 46.844 48.1658C46.8901 48.1395 46.943 48.128 46.9957 48.1329C47.0484 48.1377 47.0984 48.1588 47.1391 48.1931C48.4231 48.9589 49.8172 49.5175 51.2713 49.8488C52.5531 50.1738 53.8678 50.3468 55.189 50.3645C56.441 50.3645 57.3623 50.2016 57.9528 49.8759C58.2196 49.7525 58.4452 49.5534 58.6024 49.3029C58.7595 49.0524 58.8415 48.7612 58.8384 48.4645C58.8384 47.9945 58.5701 47.5422 58.0335 47.1073C57.4968 46.673 56.4056 46.1482 54.7597 45.5329C53.0746 44.9397 51.4769 44.1179 50.0102 43.0901C48.9612 42.3521 48.0973 41.376 47.4879 40.24C46.9601 39.1702 46.6932 37.9882 46.7097 36.7927C46.7067 35.3563 47.0968 33.9471 47.8367 32.7212C48.6803 31.3712 49.8917 30.2966 51.3251 29.6269C52.899 28.8311 54.8668 28.4331 57.2285 28.4325C58.6115 28.4213 59.9933 28.5211 61.3607 28.731C62.3511 28.8582 63.3191 29.123 64.2377 29.5183C64.3105 29.5394 64.3775 29.5774 64.4334 29.6291C64.4892 29.681 64.5325 29.7452 64.5596 29.8168C64.5959 29.9494 64.6139 30.0864 64.6133 30.224V35.707C64.617 35.7708 64.6041 35.8345 64.5759 35.8916C64.5476 35.9488 64.505 35.9974 64.4524 36.0327C64.3806 36.0688 64.3015 36.0877 64.2214 36.0877C64.1412 36.0877 64.0622 36.0688 63.9904 36.0327Z" fill="#31A8FF"/>
</g>
</g>
<defs>
<clipPath id="clip0_60_865">
<rect width="80" height="78" fill="white"/>
</clipPath>
</defs>
</svg>
