<svg width="80" height="78" viewBox="0 0 80 78" fill="none" xmlns="http://www.w3.org/2000/svg">
<rect width="80" height="78" rx="16" fill="#E3ECF5"/>
<g clip-path="url(#clip0_60_936)">
<path d="M39.8023 11.5C25.8392 11.5 26.7106 17.5552 26.7106 17.5552L26.7278 23.8286H40.0516V25.7106H21.4323C21.4323 25.7106 12.5 24.6966 12.5 38.7869C12.5 52.8737 20.298 52.3753 20.298 52.3753H24.9523V45.8372C24.9523 45.8372 24.7014 38.0392 32.6266 38.0392H45.8403C45.8403 38.0392 53.2653 38.1595 53.2653 30.8634V18.7995C53.2653 18.7995 54.3928 11.5 39.8023 11.5ZM32.4547 15.7178C33.0906 15.7178 33.7004 15.9704 34.1501 16.4201C34.5997 16.8697 34.8523 17.4796 34.8523 18.1155C34.8523 18.7514 34.5997 19.3612 34.1501 19.8109C33.7004 20.2605 33.0906 20.5131 32.4547 20.5131C32.1397 20.5136 31.8277 20.4519 31.5366 20.3315C31.2455 20.2112 30.981 20.0346 30.7583 19.8119C30.5355 19.5891 30.359 19.3246 30.2386 19.0335C30.1183 18.7424 30.0566 18.4305 30.057 18.1155C30.057 16.7903 31.1295 15.7178 32.4547 15.7178Z" fill="url(#paint0_linear_60_936)"/>
<path d="M40.1977 66.2132C54.1608 66.2132 53.2894 60.158 53.2894 60.158L53.2722 53.8846H39.9484V52.0026H58.5659C58.5659 52.0026 67.5 53.0166 67.5 38.928C67.5 24.8394 59.702 25.3396 59.702 25.3396H55.0477V31.876C55.0477 31.876 55.2986 39.674 47.3734 39.674H34.1597C34.1597 39.674 26.7347 39.5537 26.7347 46.8498V58.9137C26.7347 58.9137 25.6072 66.2132 40.1977 66.2132ZM47.5453 61.9954C47.2303 61.9958 46.9183 61.9341 46.6272 61.8138C46.3361 61.6935 46.0716 61.5169 45.8489 61.2941C45.6262 61.0714 45.4496 60.8069 45.3292 60.5158C45.2089 60.2247 45.1472 59.9127 45.1476 59.5977C45.148 59.124 45.2888 58.661 45.5522 58.2673C45.8156 57.8735 46.1898 57.5667 46.6275 57.3856C47.0652 57.2044 47.5468 57.1571 48.0114 57.2496C48.476 57.3421 48.9028 57.5703 49.2378 57.9053C49.5727 58.2402 49.8009 58.667 49.8934 59.1316C49.9859 59.5962 49.9386 60.0778 49.7575 60.5155C49.5763 60.9533 49.2695 61.3275 48.8758 61.5909C48.482 61.8543 48.019 61.995 47.5453 61.9954Z" fill="url(#paint1_linear_60_936)"/>
</g>
<defs>
<linearGradient id="paint0_linear_60_936" x1="17.7852" y1="16.2816" x2="44.9809" y2="43.5684" gradientUnits="userSpaceOnUse">
<stop stop-color="#387EB8"/>
<stop offset="1" stop-color="#366994"/>
</linearGradient>
<linearGradient id="paint1_linear_60_936" x1="34.5155" y1="33.6412" x2="63.7239" y2="61.6241" gradientUnits="userSpaceOnUse">
<stop stop-color="#FFE052"/>
<stop offset="1" stop-color="#FFC331"/>
</linearGradient>
<clipPath id="clip0_60_936">
<rect width="55" height="55" fill="white" transform="translate(12.5 11.5)"/>
</clipPath>
</defs>
</svg>
