<svg width="80" height="78" viewBox="0 0 80 78" fill="none" xmlns="http://www.w3.org/2000/svg">
<rect width="80" height="78" rx="16" fill="#E3ECF5"/>
<g clip-path="url(#clip0_60_899)">
<path d="M40 34.6577H57.6667C60.0094 34.6577 62.2562 35.5727 63.9128 37.2013C65.5693 38.8299 66.5 41.0387 66.5 43.3419V57.8156C66.5 60.1188 65.5693 62.3277 63.9128 63.9563C62.2562 65.5849 60.0094 66.4998 57.6667 66.4998C55.3239 66.4998 53.0771 65.5849 51.4206 63.9563C49.764 62.3277 48.8333 60.1188 48.8333 57.8156V43.3419C48.8333 41.0387 47.9027 38.8299 46.2461 37.2013C44.5895 35.5727 42.3427 34.6577 40 34.6577Z" fill="url(#paint0_radial_60_899)"/>
<path d="M19.3889 40.4474C19.3889 38.1442 20.3196 35.9353 21.9761 34.3067C23.6327 32.6781 25.8795 31.7632 28.2222 31.7632H40C42.3428 31.7632 44.5896 32.6781 46.2461 34.3067C47.9027 35.9353 48.8334 38.1442 48.8334 40.4474V57.8158C48.8334 60.119 49.764 62.3279 51.4206 63.9565C53.0772 65.5851 55.3239 66.5 57.6667 66.5H34.1111C25.9801 66.5 19.3889 60.0202 19.3889 52.0263V40.4474Z" fill="url(#paint1_radial_60_899)"/>
<path d="M19.3889 40.4474C19.3889 38.1442 20.3196 35.9353 21.9761 34.3067C23.6327 32.6781 25.8795 31.7632 28.2222 31.7632H40C42.3428 31.7632 44.5896 32.6781 46.2461 34.3067C47.9027 35.9353 48.8334 38.1442 48.8334 40.4474V57.8158C48.8334 60.119 49.764 62.3279 51.4206 63.9565C53.0772 65.5851 55.3239 66.5 57.6667 66.5H34.1111C25.9801 66.5 19.3889 60.0202 19.3889 52.0263V40.4474Z" fill="url(#paint2_linear_60_899)" fill-opacity="0.7"/>
<path d="M19.3889 40.4474C19.3889 38.1442 20.3196 35.9353 21.9761 34.3067C23.6327 32.6781 25.8795 31.7632 28.2222 31.7632H40C42.3428 31.7632 44.5896 32.6781 46.2461 34.3067C47.9027 35.9353 48.8334 38.1442 48.8334 40.4474V57.8158C48.8334 60.119 49.764 62.3279 51.4206 63.9565C53.0772 65.5851 55.3239 66.5 57.6667 66.5H34.1111C25.9801 66.5 19.3889 60.0202 19.3889 52.0263V40.4474Z" fill="url(#paint3_radial_60_899)" fill-opacity="0.7"/>
<path d="M56.1944 31.7632C58.1467 31.7632 60.019 31.0008 61.3995 29.6436C62.78 28.2864 63.5555 26.4457 63.5555 24.5264C63.5555 22.6071 62.78 20.7663 61.3995 19.4092C60.019 18.052 58.1467 17.2896 56.1944 17.2896C54.2421 17.2896 52.3698 18.052 50.9893 19.4092C49.6089 20.7663 48.8333 22.6071 48.8333 24.5264C48.8333 26.4457 49.6089 28.2864 50.9893 29.6436C52.3698 31.0008 54.2421 31.7632 56.1944 31.7632Z" fill="url(#paint4_radial_60_899)"/>
<path d="M56.1944 31.7632C58.1467 31.7632 60.019 31.0008 61.3995 29.6436C62.78 28.2864 63.5555 26.4457 63.5555 24.5264C63.5555 22.6071 62.78 20.7663 61.3995 19.4092C60.019 18.052 58.1467 17.2896 56.1944 17.2896C54.2421 17.2896 52.3698 18.052 50.9893 19.4092C49.6089 20.7663 48.8333 22.6071 48.8333 24.5264C48.8333 26.4457 49.6089 28.2864 50.9893 29.6436C52.3698 31.0008 54.2421 31.7632 56.1944 31.7632Z" fill="url(#paint5_radial_60_899)" fill-opacity="0.46"/>
<path d="M56.1944 31.7632C58.1467 31.7632 60.019 31.0008 61.3995 29.6436C62.78 28.2864 63.5555 26.4457 63.5555 24.5264C63.5555 22.6071 62.78 20.7663 61.3995 19.4092C60.019 18.052 58.1467 17.2896 56.1944 17.2896C54.2421 17.2896 52.3698 18.052 50.9893 19.4092C49.6089 20.7663 48.8333 22.6071 48.8333 24.5264C48.8333 26.4457 49.6089 28.2864 50.9893 29.6436C52.3698 31.0008 54.2421 31.7632 56.1944 31.7632Z" fill="url(#paint6_radial_60_899)" fill-opacity="0.4"/>
<path d="M34.1111 28.8684C36.4539 28.8684 38.7006 27.9535 40.3572 26.3249C42.0138 24.6963 42.9444 22.4874 42.9444 20.1842C42.9444 17.881 42.0138 15.6722 40.3572 14.0435C38.7006 12.4149 36.4539 11.5 34.1111 11.5C31.7684 11.5 29.5216 12.4149 27.865 14.0435C26.2084 15.6722 25.2778 17.881 25.2778 20.1842C25.2778 22.4874 26.2084 24.6963 27.865 26.3249C29.5216 27.9535 31.7684 28.8684 34.1111 28.8684Z" fill="url(#paint7_radial_60_899)"/>
<path d="M34.1111 28.8684C36.4539 28.8684 38.7006 27.9535 40.3572 26.3249C42.0138 24.6963 42.9444 22.4874 42.9444 20.1842C42.9444 17.881 42.0138 15.6722 40.3572 14.0435C38.7006 12.4149 36.4539 11.5 34.1111 11.5C31.7684 11.5 29.5216 12.4149 27.865 14.0435C26.2084 15.6722 25.2778 17.881 25.2778 20.1842C25.2778 22.4874 26.2084 24.6963 27.865 26.3249C29.5216 27.9535 31.7684 28.8684 34.1111 28.8684Z" fill="url(#paint8_radial_60_899)" fill-opacity="0.6"/>
<path d="M34.1111 28.8684C36.4539 28.8684 38.7006 27.9535 40.3572 26.3249C42.0138 24.6963 42.9444 22.4874 42.9444 20.1842C42.9444 17.881 42.0138 15.6722 40.3572 14.0435C38.7006 12.4149 36.4539 11.5 34.1111 11.5C31.7684 11.5 29.5216 12.4149 27.865 14.0435C26.2084 15.6722 25.2778 17.881 25.2778 20.1842C25.2778 22.4874 26.2084 24.6963 27.865 26.3249C29.5216 27.9535 31.7684 28.8684 34.1111 28.8684Z" fill="url(#paint9_radial_60_899)" fill-opacity="0.5"/>
<path d="M32.2708 39H18.2847C15.6422 39 13.5 41.106 13.5 43.7039V57.4539C13.5 60.0519 15.6422 62.1579 18.2847 62.1579H32.2708C34.9134 62.1579 37.0556 60.0519 37.0556 57.4539V43.7039C37.0556 41.106 34.9134 39 32.2708 39Z" fill="url(#paint10_radial_60_899)"/>
<path d="M32.2708 39H18.2847C15.6422 39 13.5 41.106 13.5 43.7039V57.4539C13.5 60.0519 15.6422 62.1579 18.2847 62.1579H32.2708C34.9134 62.1579 37.0556 60.0519 37.0556 57.4539V43.7039C37.0556 41.106 34.9134 39 32.2708 39Z" fill="url(#paint11_radial_60_899)" fill-opacity="0.7"/>
<path d="M30.4011 46.3887H26.7971V57.1947H23.7569V46.3887H20.1544V43.9644H30.4011V46.3901V46.3887Z" fill="white"/>
</g>
<defs>
<radialGradient id="paint0_radial_60_899" cx="0" cy="0" r="1" gradientUnits="userSpaceOnUse" gradientTransform="translate(66.2011 37.8043) scale(19.8432 48.1531)">
<stop stop-color="#A98AFF"/>
<stop offset="0.14" stop-color="#8C75FF"/>
<stop offset="0.565" stop-color="#5F50E2"/>
<stop offset="0.9" stop-color="#3C2CB8"/>
</radialGradient>
<radialGradient id="paint1_radial_60_899" cx="0" cy="0" r="1" gradientTransform="matrix(17.9427 44 -45.2626 17.8397 20.5844 29.4474)" gradientUnits="userSpaceOnUse">
<stop stop-color="#85C2FF"/>
<stop offset="0.69" stop-color="#7588FF"/>
<stop offset="1" stop-color="#6459FE"/>
</radialGradient>
<linearGradient id="paint2_linear_60_899" x1="37.9301" y1="31.7632" x2="37.9301" y2="66.5" gradientUnits="userSpaceOnUse">
<stop offset="0.801" stop-color="#6864F6" stop-opacity="0"/>
<stop offset="1" stop-color="#5149DE"/>
</linearGradient>
<radialGradient id="paint3_radial_60_899" cx="0" cy="0" r="1" gradientTransform="matrix(-11.2034 25.5429 -20.8561 -8.84144 48.0977 30.6056)" gradientUnits="userSpaceOnUse">
<stop stop-color="#BD96FF"/>
<stop offset="0.687" stop-color="#BD96FF" stop-opacity="0"/>
</radialGradient>
<radialGradient id="paint4_radial_60_899" cx="0" cy="0" r="1" gradientUnits="userSpaceOnUse" gradientTransform="translate(56.1944 22.4581) rotate(-90) scale(14.4737 18.5818)">
<stop offset="0.268" stop-color="#6868F7"/>
<stop offset="1" stop-color="#3923B1"/>
</radialGradient>
<radialGradient id="paint5_radial_60_899" cx="0" cy="0" r="1" gradientTransform="matrix(8.05341 6.65568 -9.792 11.4517 50.1097 20.9717)" gradientUnits="userSpaceOnUse">
<stop offset="0.271" stop-color="#A1D3FF"/>
<stop offset="0.813" stop-color="#A1D3FF" stop-opacity="0"/>
</radialGradient>
<radialGradient id="paint6_radial_60_899" cx="0" cy="0" r="1" gradientTransform="matrix(9.36347 -8.18962 20.4347 22.5815 62.0573 20.7176)" gradientUnits="userSpaceOnUse">
<stop stop-color="#E3ACFD"/>
<stop offset="0.816" stop-color="#9FA2FF" stop-opacity="0"/>
</radialGradient>
<radialGradient id="paint7_radial_60_899" cx="0" cy="0" r="1" gradientUnits="userSpaceOnUse" gradientTransform="translate(34.1111 17.7034) rotate(-90) scale(17.3684 22.2983)">
<stop offset="0.268" stop-color="#8282FF"/>
<stop offset="1" stop-color="#3923B1"/>
</radialGradient>
<radialGradient id="paint8_radial_60_899" cx="0" cy="0" r="1" gradientTransform="matrix(9.66402 7.98688 -11.7504 13.7419 26.8101 15.9189)" gradientUnits="userSpaceOnUse">
<stop offset="0.271" stop-color="#A1D3FF"/>
<stop offset="0.813" stop-color="#A1D3FF" stop-opacity="0"/>
</radialGradient>
<radialGradient id="paint9_radial_60_899" cx="0" cy="0" r="1" gradientTransform="matrix(11.2362 -9.82754 24.5217 27.0978 41.1466 15.6139)" gradientUnits="userSpaceOnUse">
<stop stop-color="#E3ACFD"/>
<stop offset="0.816" stop-color="#9FA2FF" stop-opacity="0"/>
</radialGradient>
<radialGradient id="paint10_radial_60_899" cx="0" cy="0" r="1" gradientTransform="matrix(23.5555 23.1579 -23.5555 23.1579 13.4998 38.9994)" gradientUnits="userSpaceOnUse">
<stop offset="0.047" stop-color="#688EFF"/>
<stop offset="0.947" stop-color="#230F94"/>
</radialGradient>
<radialGradient id="paint11_radial_60_899" cx="0" cy="0" r="1" gradientUnits="userSpaceOnUse" gradientTransform="translate(25.2778 52.8947) rotate(90) scale(16.2105 19.2422)">
<stop offset="0.571" stop-color="#6965F6" stop-opacity="0"/>
<stop offset="1" stop-color="#8F8FFF"/>
</radialGradient>
<clipPath id="clip0_60_899">
<rect width="53" height="55" fill="white" transform="translate(13.5 11.5)"/>
</clipPath>
</defs>
</svg>
