<svg width="80" height="78" viewBox="0 0 80 78" fill="none" xmlns="http://www.w3.org/2000/svg">
<path d="M31.2701 14.2383C32.9896 14.2385 34.444 15.6585 34.444 17.3369V56.3301H34.3121C34.312 58.0084 32.8568 59.4287 31.1373 59.4287H17.778C16.0585 59.4287 14.6033 58.0084 14.6031 56.3301V17.3369C14.6031 15.6584 16.0584 14.2383 17.778 14.2383H31.2701ZM62.2223 14.2383C63.9419 14.2383 65.3971 15.6584 65.3971 17.3369V38.3828C65.397 40.0613 64.0741 41.4812 62.2223 41.6104H48.7301C47.0106 41.6103 45.5553 40.1902 45.5553 38.5117V17.3369C45.5553 15.6585 47.0106 14.2384 48.7301 14.2383H62.2223Z" fill="white"/>
<path fill-rule="evenodd" clip-rule="evenodd" d="M70.6552 0H9.47333C4.21037 0 0 4.10526 0 9.23684V68.7632C0 73.8947 4.21037 78 9.47333 78H70.5237C75.7866 78 79.997 73.8947 79.997 68.7632V9.36513C80.1286 4.10526 75.9182 0 70.6552 0ZM34.4724 56.3191C34.4724 57.9868 33.0251 59.398 31.3146 59.398H18.0256C16.3152 59.398 14.8679 57.9868 14.8679 56.3191V17.5757C14.8679 15.9079 16.3152 14.4967 18.0256 14.4967H31.4462C33.1567 14.4967 34.604 15.9079 34.604 17.5757V56.3191H34.4724ZM65.3923 38.4868C65.3923 40.1546 64.0765 41.5658 62.2345 41.6941C62.2345 41.6941 62.2345 41.6941 62.1029 41.6941H48.814C47.1035 41.6941 45.6562 40.2829 45.6562 38.6151V17.5757C45.6562 15.9079 47.1035 14.4967 48.814 14.4967H62.2345C63.945 14.4967 65.3923 15.9079 65.3923 17.5757V38.4868Z" fill="url(#paint0_linear_60_923)"/>
<defs>
<linearGradient id="paint0_linear_60_923" x1="40.0906" y1="78.1796" x2="40.0906" y2="0" gradientUnits="userSpaceOnUse">
<stop stop-color="#0052CC"/>
<stop offset="1" stop-color="#2684FF"/>
</linearGradient>
</defs>
</svg>
